<svg width="573" height="120" viewBox="0 0 573 120" fill="none" xmlns="http://www.w3.org/2000/svg">
<rect x="228" width="120" height="120" rx="17.9739" fill="#FF5900"/>
<g clip-path="url(#clip0_6001_161)">
<path d="M318.219 32.4042C318.866 33.7735 319.255 35.3201 319.255 37.0116V83.9883C319.255 85.6638 318.866 87.2103 318.219 88.5797C323.223 89.4174 328 85.4543 328 79.993V40.9908C328 35.4973 323.206 31.5664 318.219 32.4042Z" fill="white"/>
<path opacity="0.8" d="M318.219 32.4042C316.082 27.9256 310.964 25.3963 305.977 27.0073C307.709 29.005 308.794 31.647 308.794 34.6434V86.3404C308.794 89.3207 307.709 91.9789 305.993 93.9765C310.997 95.5875 316.098 93.0421 318.236 88.5797C318.883 87.2103 319.272 85.6477 319.272 83.9883V37.0116C319.272 35.3362 318.883 33.7896 318.236 32.4042H318.219Z" fill="white"/>
<path opacity="0.4" d="M270.866 81.4106C266.769 79.9446 264.016 75.9654 264.016 71.503V50.7372C264.016 46.3875 266.623 42.505 270.575 40.9423L305.36 27.2166C305.571 27.1361 305.765 27.0877 305.976 27.0233C303.012 23.5919 298.154 22.0453 293.506 23.8818L255.206 38.993C250.866 40.7007 248 44.9859 248 49.7706V72.6146C248 77.5281 251.028 81.8939 255.53 83.521L293.814 97.2628C298.381 98.9061 303.077 97.3434 305.96 94.0086C305.846 93.9764 305.749 93.9603 305.636 93.9119L270.834 81.4267L270.866 81.4106Z" fill="white"/>
<path opacity="0.6" d="M308.793 85.3406L288 77.8665C284.615 76.6421 282.332 73.3396 282.332 69.6504V52.4127C282.332 48.8041 284.486 45.5821 287.757 44.2772L308.793 35.9322V34.6595C308.793 31.6631 307.708 29.0371 305.975 27.0234C305.765 27.0878 305.571 27.1361 305.36 27.2167L270.558 40.9585C266.607 42.5212 264 46.4037 264 50.7534V71.5192C264 75.9816 266.753 79.9447 270.85 81.4268L305.652 93.912C305.765 93.9443 305.862 93.9765 305.975 94.0087C307.708 91.9949 308.777 89.3529 308.777 86.3726L308.793 85.4019V85.3406Z" fill="white"/>
<path d="M282.331 52.3967V69.6343C282.331 73.3396 284.598 76.6422 287.999 77.8504L308.792 85.3416V35.9323L287.756 44.2772C284.485 45.566 282.331 48.8041 282.331 52.4128V52.3967Z" fill="white"/>
</g>
<path d="M0.218805 60C0.218805 63.1929 2.80713 65.7812 6 65.7812C9.19287 65.7812 11.7812 63.1929 11.7812 60C11.7812 56.8071 9.19287 54.2188 6 54.2188C2.80713 54.2188 0.218805 56.8071 0.218805 60ZM6 61.084H227V58.916H6V61.084Z" fill="#FF5900"/>
<path d="M561.219 60C561.219 63.1929 563.807 65.7812 567 65.7812C570.193 65.7812 572.781 63.1929 572.781 60C572.781 56.8072 570.193 54.2188 567 54.2188C563.807 54.2188 561.219 56.8072 561.219 60ZM343 61.084L567 61.084L567 58.916L343 58.916L343 61.084Z" fill="#FF5900"/>
<defs>
<clipPath id="clip0_6001_161">
<rect width="80" height="74.8148" fill="white" transform="translate(248 23.0926)"/>
</clipPath>
</defs>
</svg>
